<?xml version="1.0" encoding="UTF-8" standalone="no"?>
<svg
   xmlns:dc="http://purl.org/dc/elements/1.1/"
   xmlns:cc="http://creativecommons.org/ns#"
   xmlns:rdf="http://www.w3.org/1999/02/22-rdf-syntax-ns#"
   xmlns:svg="http://www.w3.org/2000/svg"
   xmlns="http://www.w3.org/2000/svg"
   height="90"
   width="90"
   id="svg24"
   xml:space="preserve"
   viewBox="0 0 90 90"
   y="0px"
   x="0px"
   version="1.1"><metadata
     id="metadata30"><rdf:RDF><cc:Work
         rdf:about=""><dc:format>image/svg+xml</dc:format><dc:type
           rdf:resource="http://purl.org/dc/dcmitype/StillImage" /><dc:title></dc:title></cc:Work></rdf:RDF></metadata><defs
     id="defs28" /><path
     id="path2"
     d="m 88.454,44.028 c -2.742,-0.143 -4.889,-2.393 -4.889,-5.124 0,-0.662 0.13,-1.318 0.389,-1.949 l 0.637,-1.557 -1.584,-0.565 c -3.511,-1.255 -5.87,-4.595 -5.87,-8.317 0,-0.667 0.085,-1.358 0.251,-2.048 l 0.491,-2.05 -2.106,0.066 -0.243,0.014 c -4.431,0 -8.036,-3.604 -8.036,-8.034 l 0.121,-2.769 -2.249,0.805 c -0.666,0.237 -1.284,0.356 -1.89,0.356 -3.101,0 -5.624,-2.524 -5.624,-5.628 0,-1.03 0.3,-2.057 0.87,-2.965 L 59.841,2.472 57.82,1.871 C 53.651,0.629 49.336,0 44.997,0 20.185,0 0,20.185 0,44.998 0,69.812 20.185,90 44.997,90 69.446,90 89.624,70.107 89.978,45.658 L 90,44.109 Z M 44.997,86.786 c -13.046,0 -24.711,-6.015 -32.38,-15.413 0.154,0.013 0.308,0.023 0.466,0.023 3.024,0 5.476,-2.452 5.476,-5.476 0,-3.024 -2.452,-5.476 -5.476,-5.476 -2.415,0 -4.46,1.565 -5.188,3.734 -2.872,-5.533 -4.54,-11.783 -4.661,-18.407 0.435,1.492 1.797,2.588 3.429,2.588 1.981,0 3.588,-1.606 3.588,-3.588 0,-1.981 -1.606,-3.588 -3.588,-3.588 -1.617,0 -2.969,1.077 -3.417,2.548 C 3.838,24.012 18.152,7.683 36.951,4 c -0.226,0.485 -0.362,1.02 -0.362,1.59 0,2.086 1.691,3.776 3.776,3.776 2.086,0 3.776,-1.691 3.776,-3.776 0,-0.885 -0.317,-1.688 -0.827,-2.332 0.559,-0.022 1.118,-0.043 1.682,-0.043 3.406,0 6.796,0.416 10.101,1.243 -0.303,0.896 -0.458,1.832 -0.458,2.772 0,4.875 3.964,8.842 8.838,8.842 0.304,0 0.607,-0.019 0.91,-0.053 0.689,4.956 4.619,8.891 9.574,9.585 -0.025,0.309 -0.038,0.612 -0.038,0.913 0,4.559 2.596,8.7 6.593,10.738 -0.108,0.543 -0.165,1.094 -0.165,1.649 0,3.905 2.693,7.207 6.367,8.105 C 85.66,69.066 67.23,86.786 44.997,86.786 Z" /><circle
     id="circle4"
     r="3.3989999"
     cy="19.659"
     cx="25.163" /><circle
     id="circle6"
     r="5.098"
     cy="24.379"
     cx="48.203999" /><circle
     id="circle8"
     r="5.2870002"
     cy="37.408001"
     cx="26.875999" /><circle
     id="circle10"
     r="6.6090002"
     cy="50.999001"
     cx="45.938" /><circle
     id="circle12"
     r="3.9649999"
     cy="73.473"
     cx="58.778" /><circle
     id="circle14"
     r="3.3989999"
     cy="56.958"
     cx="72" /><circle
     id="circle16"
     r="4.5320001"
     cy="72.151001"
     cx="35.93" /><circle
     id="circle18"
     r="3.3989999"
     cy="35.896999"
     cx="67.653" /></svg>