<?xml version="1.0" encoding="UTF-8" standalone="no"?>
<svg
   height="90"
   width="90"
   id="svg24"
   xml:space="preserve"
   viewBox="0 0 90 90"
   y="0px"
   x="0px"
   version="1.1"
   sodipodi:docname="chocolate chip cookie shape.svg"
   inkscape:version="1.1 (c68e22c387, 2021-05-23)"
   xmlns:inkscape="http://www.inkscape.org/namespaces/inkscape"
   xmlns:sodipodi="http://sodipodi.sourceforge.net/DTD/sodipodi-0.dtd"
   xmlns="http://www.w3.org/2000/svg"
   xmlns:svg="http://www.w3.org/2000/svg"
   xmlns:rdf="http://www.w3.org/1999/02/22-rdf-syntax-ns#"
   xmlns:cc="http://creativecommons.org/ns#"
   xmlns:dc="http://purl.org/dc/elements/1.1/"><sodipodi:namedview
     id="namedview14"
     pagecolor="#ffffff"
     bordercolor="#666666"
     borderopacity="1.0"
     inkscape:pageshadow="2"
     inkscape:pageopacity="0.0"
     inkscape:pagecheckerboard="0"
     showgrid="false"
     inkscape:snap-nodes="false"
     inkscape:snap-others="true"
     inkscape:snap-page="true"
     inkscape:snap-grids="true"
     inkscape:snap-object-midpoints="true"
     inkscape:zoom="5.3582981"
     inkscape:cx="71.011354"
     inkscape:cy="57.200999"
     inkscape:window-width="1920"
     inkscape:window-height="1017"
     inkscape:window-x="1912"
     inkscape:window-y="-8"
     inkscape:window-maximized="1"
     inkscape:current-layer="svg24" /><metadata
     id="metadata30"><rdf:RDF><cc:Work
         rdf:about=""><dc:format>image/svg+xml</dc:format><dc:type
           rdf:resource="http://purl.org/dc/dcmitype/StillImage" /></cc:Work></rdf:RDF></metadata><defs
     id="defs28" /><path
     style="color:#000000;fill:#000000;-inkscape-stroke:none"
     d="m 88.454,44.028 c -2.742,-0.143 -4.889,-2.393 -4.889,-5.124 0,-0.662 0.13,-1.318 0.389,-1.949 l 0.637,-1.557 -1.584,-0.565 c -3.511,-1.255 -5.87,-4.595 -5.87,-8.317 0,-0.667 0.085,-1.358 0.251,-2.048 l 0.491,-2.05 -2.106,0.066 -0.243,0.014 c -4.431,0 -8.036,-3.604 -8.036,-8.034 l 0.121,-2.769 -2.249,0.805 c -0.666,0.237 -1.284,0.356 -1.89,0.356 -3.101,0 -5.624,-2.524 -5.624,-5.628 0,-1.03 0.3,-2.057 0.87,-2.965 L 59.841,2.472 57.82,1.871 C 53.651,0.629 49.336,0 44.997,0 20.185,0 0,20.185 0,44.998 0,69.812 20.185,90 44.997,90 69.446,90 89.624,70.107 89.978,45.658 L 90,44.109 Z"
     id="path2"
     sodipodi:nodetypes="cscccscccccccsscccsssccc" /></svg>
