<?xml version="1.0" encoding="UTF-8" standalone="no"?>
<svg
   xmlns:dc="http://purl.org/dc/elements/1.1/"
   xmlns:cc="http://creativecommons.org/ns#"
   xmlns:rdf="http://www.w3.org/1999/02/22-rdf-syntax-ns#"
   xmlns:svg="http://www.w3.org/2000/svg"
   xmlns="http://www.w3.org/2000/svg"
   xmlns:sodipodi="http://sodipodi.sourceforge.net/DTD/sodipodi-0.dtd"
   xmlns:inkscape="http://www.inkscape.org/namespaces/inkscape"
   height="690"
   width="690"
   id="svg24"
   xml:space="preserve"
   viewBox="0 0 690 690"
   y="0px"
   x="0px"
   version="1.1"
   sodipodi:docname="chocolate chip cookie bg.svg"
   inkscape:version="0.92.4 (5da689c313, 2019-01-14)"><sodipodi:namedview
     pagecolor="#ffffff"
     bordercolor="#666666"
     borderopacity="1"
     objecttolerance="10"
     gridtolerance="10"
     guidetolerance="10"
     inkscape:pageopacity="0"
     inkscape:pageshadow="2"
     inkscape:window-width="1920"
     inkscape:window-height="1021"
     id="namedview14"
     showgrid="false"
     fit-margin-top="300"
     fit-margin-left="300"
     fit-margin-right="300"
     fit-margin-bottom="300"
     inkscape:snap-bbox="true"
     inkscape:bbox-nodes="true"
     inkscape:snap-object-midpoints="true"
     inkscape:zoom="0.65555556"
     inkscape:cx="163.8187"
     inkscape:cy="132.24337"
     inkscape:window-x="0"
     inkscape:window-y="27"
     inkscape:window-maximized="1"
     inkscape:current-layer="svg24" /><metadata
     id="metadata30"><rdf:RDF><cc:Work
         rdf:about=""><dc:format>image/svg+xml</dc:format><dc:type
           rdf:resource="http://purl.org/dc/dcmitype/StillImage" /><dc:title></dc:title></cc:Work></rdf:RDF></metadata><defs
     id="defs28" /><rect
     style="opacity:1;fill:#e2e2e2;fill-opacity:1;stroke:none;stroke-width:1.19117594;stroke-opacity:1"
     id="rect824"
     width="690"
     height="690"
     x="0"
     y="-2.8421709e-14" /><g
     id="g835"
     style="fill:#bababa;fill-opacity:1"><path
       style="fill:#bababa;fill-opacity:1"
       inkscape:connector-curvature="0"
       d="m 388.454,344.028 c -2.742,-0.143 -4.889,-2.393 -4.889,-5.124 0,-0.662 0.13,-1.318 0.389,-1.949 l 0.637,-1.557 -1.584,-0.565 c -3.511,-1.255 -5.87,-4.595 -5.87,-8.317 0,-0.667 0.085,-1.358 0.251,-2.048 l 0.491,-2.05 -2.106,0.066 -0.243,0.014 c -4.431,0 -8.036,-3.604 -8.036,-8.034 l 0.121,-2.769 -2.249,0.805 c -0.666,0.237 -1.284,0.356 -1.89,0.356 -3.101,0 -5.624,-2.524 -5.624,-5.628 0,-1.03 0.3,-2.057 0.87,-2.965 l 1.119,-1.791 -2.021,-0.601 C 353.651,300.629 349.336,300 344.997,300 320.185,300 300,320.185 300,344.998 300,369.812 320.185,390 344.997,390 c 24.449,0 44.627,-19.893 44.981,-44.342 L 390,344.109 Z m -43.457,42.758 c -13.046,0 -24.711,-6.015 -32.38,-15.413 0.154,0.013 0.308,0.023 0.466,0.023 3.024,0 5.476,-2.452 5.476,-5.476 0,-3.024 -2.452,-5.476 -5.476,-5.476 -2.415,0 -4.46,1.565 -5.188,3.734 -2.872,-5.533 -4.54,-11.783 -4.661,-18.407 0.435,1.492 1.797,2.588 3.429,2.588 1.981,0 3.588,-1.606 3.588,-3.588 0,-1.981 -1.606,-3.588 -3.588,-3.588 -1.617,0 -2.969,1.077 -3.417,2.548 0.592,-19.719 14.906,-36.048 33.705,-39.731 -0.226,0.485 -0.362,1.02 -0.362,1.59 0,2.086 1.691,3.776 3.776,3.776 2.086,0 3.776,-1.691 3.776,-3.776 0,-0.885 -0.317,-1.688 -0.827,-2.332 0.559,-0.022 1.118,-0.043 1.682,-0.043 3.406,0 6.796,0.416 10.101,1.243 -0.303,0.896 -0.458,1.832 -0.458,2.772 0,4.875 3.964,8.842 8.838,8.842 0.304,0 0.607,-0.019 0.91,-0.053 0.689,4.956 4.619,8.891 9.574,9.585 -0.025,0.309 -0.038,0.612 -0.038,0.913 0,4.559 2.596,8.7 6.593,10.738 -0.108,0.543 -0.165,1.094 -0.165,1.649 0,3.905 2.693,7.207 6.367,8.105 -1.058,22.057 -19.488,39.777 -41.721,39.777 z"
       id="path2" /><circle
       style="fill:#bababa;fill-opacity:1"
       cx="325.16299"
       cy="319.659"
       r="3.3989999"
       id="circle4" /><circle
       style="fill:#bababa;fill-opacity:1"
       cx="348.20401"
       cy="324.379"
       r="5.098"
       id="circle6" /><circle
       style="fill:#bababa;fill-opacity:1"
       cx="326.87601"
       cy="337.40799"
       r="5.2870002"
       id="circle8" /><circle
       style="fill:#bababa;fill-opacity:1"
       cx="345.93799"
       cy="350.99899"
       r="6.6090002"
       id="circle10" /><circle
       style="fill:#bababa;fill-opacity:1"
       cx="358.77802"
       cy="373.47299"
       r="3.9649999"
       id="circle12" /><circle
       style="fill:#bababa;fill-opacity:1"
       cx="372"
       cy="356.95801"
       r="3.3989999"
       id="circle14" /><circle
       style="fill:#bababa;fill-opacity:1"
       cx="335.92999"
       cy="372.151"
       r="4.5320001"
       id="circle16" /><circle
       style="fill:#bababa;fill-opacity:1"
       cx="367.65302"
       cy="335.897"
       r="3.3989999"
       id="circle18" /></g></svg>